<?xml version="1.0" standalone="no"?>
<!DOCTYPE svg PUBLIC "-//W3C//DTD SVG 20010904//EN"
 "http://www.w3.org/TR/2001/REC-SVG-20010904/DTD/svg10.dtd">
<svg version="1.0" xmlns="http://www.w3.org/2000/svg"
 width="20.000000pt" height="20.000000pt" viewBox="0 0 512.000000 512.000000"
 preserveAspectRatio="xMidYMid meet">
<metadata>
Created by potrace 1.16, written by Peter Selinger 2001-2019
</metadata>
<g transform="translate(0.000000,512.000000) scale(0.100000,-0.100000)"
fill="#98CE00" stroke="none">
<path d="M2435 4452 c-62 -34 -105 -94 -112 -156 -6 -50 -3 -48 -96 -66 -32
-6 -95 -24 -140 -39 -513 -174 -787 -632 -787 -1318 0 -612 -88 -996 -280
-1237 -66 -82 -123 -137 -272 -260 -60 -49 -108 -93 -108 -97 0 -5 859 -9
1920 -9 1094 0 1920 4 1920 9 0 5 -62 60 -137 123 -232 193 -322 310 -400 517
-77 205 -123 558 -123 949 0 567 -180 975 -530 1201 -106 68 -254 130 -375
156 -44 10 -85 19 -91 20 -6 2 -15 20 -19 41 -15 82 -67 148 -142 179 -20 9
-66 15 -107 15 -58 0 -80 -5 -121 -28z"/>
<path d="M2040 1061 c0 -24 40 -135 63 -174 59 -100 210 -209 327 -236 69 -16
219 -13 281 5 180 53 340 215 365 372 l7 42 -522 0 c-307 0 -521 -4 -521 -9z"/>
</g>
</svg>
