<?xml version="1.0" standalone="no"?>
<!DOCTYPE svg PUBLIC "-//W3C//DTD SVG 20010904//EN"
 "http://www.w3.org/TR/2001/REC-SVG-20010904/DTD/svg10.dtd">
<svg version="1.0" xmlns="http://www.w3.org/2000/svg"
 width="348.000000pt" height="348.000000pt" viewBox="0 0 348.000000 348.000000"
 preserveAspectRatio="xMidYMid meet">
<metadata>
Created by potrace 1.16, written by Peter Selinger 2001-2019
</metadata>
<g transform="translate(0.000000,348.000000) scale(0.100000,-0.100000)"
fill="#000000" stroke="none">
<path d="M290 1960 l0 -1520 -145 0 -145 0 0 -75 0 -75 145 0 145 0 0 -145 0
-145 75 0 75 0 0 145 0 145 1520 0 1520 0 0 75 0 75 -1520 0 -1520 0 0 1520 0
1520 -75 0 -75 0 0 -1520z"/>
<path d="M3142 3242 c-10 -10 -105 -252 -212 -538 -106 -285 -197 -523 -202
-529 -5 -6 -112 94 -267 249 -244 244 -259 257 -291 254 -21 -2 -39 -12 -51
-28 -10 -15 -54 -185 -108 -420 -147 -643 -311 -1354 -314 -1357 -2 -1 -84 79
-182 177 -154 154 -184 180 -210 180 -27 0 -70 -40 -343 -313 -209 -209 -312
-320 -312 -334 0 -35 38 -73 73 -73 29 0 62 30 302 270 148 149 274 270 280
270 5 0 100 -90 210 -200 136 -135 208 -200 222 -200 12 0 33 10 47 23 23 20
44 103 228 902 111 484 203 882 205 885 2 2 117 -109 256 -248 221 -220 256
-252 283 -252 18 0 38 8 48 19 23 26 456 1177 456 1214 0 57 -78 89 -118 49z"/>
</g>
</svg>
