<?xml version="1.0" standalone="no"?>
<!DOCTYPE svg PUBLIC "-//W3C//DTD SVG 20010904//EN"
 "http://www.w3.org/TR/2001/REC-SVG-20010904/DTD/svg10.dtd">
<svg version="1.0" xmlns="http://www.w3.org/2000/svg"
 width="225.000000pt" height="225.000000pt" viewBox="0 0 225.000000 225.000000"
 preserveAspectRatio="xMidYMid meet">
<g transform="translate(0.000000,225.000000) scale(0.100000,-0.100000)"
fill="#fc2344" stroke="none">
<path d="M1078 1541 c-71 -23 -112 -49 -162 -100 l-39 -40 -81 0 c-116 1 -183
-26 -262 -105 -77 -76 -104 -142 -104 -251 0 -99 27 -169 91 -240 74 -80 139
-108 260 -113 l97 -4 18 -40 c22 -50 91 -111 142 -126 26 -8 139 -12 341 -12
328 0 332 1 394 59 67 62 88 171 47 251 -19 37 -19 41 -4 103 13 52 14 74 5
118 -22 106 -93 194 -188 234 -22 10 -40 29 -58 66 -37 72 -108 139 -189 179
-61 30 -80 35 -160 37 -68 2 -105 -2 -148 -16z m236 -68 c95 -29 170 -95 214
-191 13 -29 32 -56 41 -59 81 -26 131 -64 162 -125 25 -49 34 -124 20 -161
-10 -27 -11 -27 -40 -12 -16 8 -33 24 -36 36 -11 34 -85 108 -130 131 -26 14
-66 23 -116 26 -66 4 -84 1 -131 -20 -30 -14 -69 -39 -88 -55 -28 -24 -42 -29
-67 -26 -17 3 -56 -2 -87 -11 -95 -28 -167 -110 -185 -209 l-7 -42 -72 1
c-178 4 -301 131 -295 305 5 174 170 305 342 270 l55 -11 51 54 c57 62 131
102 207 114 60 10 92 7 162 -15z m165 -429 c60 -17 122 -73 141 -126 9 -25 25
-39 63 -58 61 -30 90 -74 90 -135 0 -53 -28 -103 -73 -130 -33 -19 -51 -20
-320 -20 -157 0 -297 3 -312 8 -38 10 -98 65 -114 104 -20 47 -17 117 6 162
36 72 107 108 193 98 49 -6 51 -5 103 42 74 68 132 82 223 55z"/>
</g>
</svg>
