<?xml version="1.0" standalone="no"?>
<!DOCTYPE svg PUBLIC "-//W3C//DTD SVG 20010904//EN"
 "http://www.w3.org/TR/2001/REC-SVG-20010904/DTD/svg10.dtd">
<svg version="1.0" xmlns="http://www.w3.org/2000/svg"
 width="512.000000pt" height="512.000000pt" viewBox="0 0 512.000000 512.000000"
 preserveAspectRatio="xMidYMid meet">
<metadata>
Created by potrace 1.16, written by Peter Selinger 2001-2019
</metadata>
<g transform="translate(0.000000,512.000000) scale(0.100000,-0.100000)"
fill="#fc2344" stroke="none">
<path d="M3255 4381 c-49 -23 -99 -74 -119 -123 -9 -22 -16 -67 -16 -108 l0
-70 -1377 -2 -1378 -3 -60 -29 c-77 -38 -153 -114 -191 -191 l-29 -60 0 -1395
0 -1395 29 -60 c38 -77 114 -153 191 -191 l60 -29 2195 0 2195 0 60 29 c77 38
153 114 191 191 l29 60 0 1395 0 1395 -29 60 c-38 77 -114 153 -191 190 -50
25 -74 30 -157 33 l-98 4 0 69 c0 81 -17 130 -63 178 -69 73 -49 71 -657 71
-510 0 -548 -2 -585 -19z m1089 -155 c47 -20 56 -54 56 -226 0 -172 -9 -206
-56 -226 -49 -21 -959 -21 -1008 0 -47 20 -56 54 -56 226 0 169 9 206 54 226
46 20 962 20 1010 0z m-1224 -378 c1 -113 50 -194 142 -232 56 -24 1100 -24
1156 0 92 38 141 119 142 233 l0 74 67 -7 c115 -12 189 -61 230 -151 17 -37
18 -100 21 -982 l3 -943 -481 0 -480 0 0 -480 0 -480 -1742 2 -1743 3 -45 21
c-54 25 -113 87 -131 140 -12 32 -14 266 -14 1354 0 1447 -4 1358 63 1432 42
46 82 69 137 79 22 3 633 7 1358 8 l1317 1 0 -72z m1758 -2470 c-3 -264 -6
-308 -21 -343 -24 -54 -73 -103 -127 -129 -42 -20 -64 -21 -347 -24 l-303 -4
0 401 0 401 401 0 401 0 -4 -302z"/>
<path d="M3440 4000 l0 -80 80 0 80 0 0 80 0 80 -80 0 -80 0 0 -80z"/>
<path d="M3760 4000 l0 -80 80 0 80 0 0 80 0 80 -80 0 -80 0 0 -80z"/>
<path d="M4080 4000 l0 -80 80 0 80 0 0 80 0 80 -80 0 -80 0 0 -80z"/>
<path d="M535 3741 c-87 -40 -135 -120 -135 -223 1 -142 97 -238 240 -238 144
0 240 96 240 240 0 104 -53 187 -142 224 -52 22 -153 20 -203 -3z m155 -171
c43 -43 11 -120 -50 -120 -38 0 -70 32 -70 70 0 38 32 70 70 70 17 0 39 -9 50
-20z"/>
<path d="M1040 3280 l0 -160 -27 0 c-60 0 -133 -73 -133 -132 l0 -28 -160 0
-160 0 0 -80 0 -80 160 0 160 0 0 -80 0 -80 -160 0 -160 0 0 -80 0 -80 160 0
160 0 0 -80 0 -80 -160 0 -160 0 0 -80 0 -80 160 0 160 0 0 -80 0 -80 -160 0
-160 0 0 -80 0 -80 160 0 160 0 0 -80 0 -80 -160 0 -160 0 0 -80 0 -80 160 0
160 0 0 -27 c0 -60 73 -133 133 -133 l27 0 0 -160 0 -160 80 0 80 0 0 160 0
160 80 0 80 0 0 -160 0 -160 80 0 80 0 0 160 0 160 80 0 80 0 0 -160 0 -160
80 0 80 0 0 160 0 160 80 0 80 0 0 -160 0 -160 80 0 80 0 0 160 0 160 80 0 80
0 0 -160 0 -160 80 0 80 0 0 160 0 160 28 0 c59 0 132 73 132 133 l0 27 160 0
160 0 0 80 0 80 -160 0 -160 0 0 80 0 80 160 0 160 0 0 80 0 80 -160 0 -160 0
0 80 0 80 160 0 160 0 0 80 0 80 -160 0 -160 0 0 80 0 80 160 0 160 0 0 80 0
80 -160 0 -160 0 0 80 0 80 160 0 160 0 0 80 0 80 -160 0 -160 0 0 28 c0 59
-73 132 -132 132 l-28 0 0 160 0 160 -80 0 -80 0 0 -160 0 -160 -80 0 -80 0 0
160 0 160 -80 0 -80 0 0 -160 0 -160 -80 0 -80 0 0 160 0 160 -80 0 -80 0 0
-160 0 -160 -80 0 -80 0 0 160 0 160 -80 0 -80 0 0 -160 0 -160 -80 0 -80 0 0
160 0 160 -80 0 -80 0 0 -160z m1440 -1040 l0 -720 -720 0 -720 0 0 720 0 720
720 0 720 0 0 -720z"/>
<path d="M1200 2240 l0 -560 560 0 560 0 0 560 0 560 -560 0 -560 0 0 -560z
m960 0 l0 -400 -400 0 -400 0 0 400 0 400 400 0 400 0 0 -400z"/>
<path d="M3472 3419 c-116 -45 -192 -163 -192 -299 0 -130 64 -236 175 -290
72 -36 189 -40 268 -10 121 46 197 161 197 300 0 190 -132 321 -323 319 -47 0
-90 -7 -125 -20z m206 -169 c130 -79 74 -280 -78 -280 -85 0 -150 65 -150 150
0 85 65 150 150 150 27 0 58 -8 78 -20z"/>
<path d="M4272 3419 c-116 -45 -192 -163 -192 -299 0 -130 64 -236 175 -290
72 -36 189 -40 268 -10 121 46 197 161 197 300 0 190 -132 321 -323 319 -47 0
-90 -7 -125 -20z m206 -169 c130 -79 74 -280 -78 -280 -85 0 -150 65 -150 150
0 85 65 150 150 150 27 0 58 -8 78 -20z"/>
<path d="M3280 2320 l0 -320 720 0 720 0 0 320 0 320 -720 0 -720 0 0 -320z
m1280 0 l0 -160 -560 0 -560 0 0 160 0 160 560 0 560 0 0 -160z"/>
<path d="M3312 1659 c-116 -45 -192 -163 -192 -299 0 -130 64 -236 175 -290
72 -36 189 -40 268 -10 262 98 263 501 2 599 -74 28 -180 28 -253 0z m206
-169 c130 -79 74 -280 -78 -280 -152 0 -208 201 -78 280 43 26 113 26 156 0z"/>
<path d="M4375 1501 c-87 -40 -135 -120 -135 -223 1 -142 97 -238 240 -238
144 0 240 96 240 240 0 104 -53 187 -142 224 -52 22 -153 20 -203 -3z m155
-171 c11 -11 20 -33 20 -50 0 -17 -9 -39 -20 -50 -43 -43 -120 -11 -120 50 0
17 9 39 20 50 11 11 33 20 50 20 17 0 39 -9 50 -20z"/>
</g>
</svg>
