<?xml version="1.0" standalone="no"?>
<!DOCTYPE svg PUBLIC "-//W3C//DTD SVG 20010904//EN"
 "http://www.w3.org/TR/2001/REC-SVG-20010904/DTD/svg10.dtd">
<svg version="1.0" xmlns="http://www.w3.org/2000/svg"
 width="200.000000pt" height="200.000000pt" viewBox="0 0 200.000000 200.000000"
 preserveAspectRatio="xMidYMid meet">
<g transform="translate(0.000000,200.000000) scale(0.100000,-0.100000)"
fill="#000000" stroke="none">
<path d="M958 1543 c-139 -197 -267 -383 -285 -413 -18 -30 -36 -61 -40 -68
-6 -10 -17 -8 -48 8 -46 24 -130 27 -178 6 -18 -7 -49 -28 -71 -45 -46 -37
-95 -41 -145 -10 -47 28 -85 22 -89 -14 -7 -58 75 -103 176 -95 49 3 67 11
117 46 69 50 113 55 166 19 28 -19 33 -28 30 -52 -5 -43 -6 -44 -65 -38 -78 8
-118 -3 -178 -47 -61 -46 -104 -52 -157 -19 -47 28 -85 22 -89 -14 -7 -58 75
-103 176 -95 49 3 67 11 117 46 64 46 104 53 155 27 26 -14 30 -21 30 -60 l0
-44 -54 6 c-78 8 -118 -3 -178 -47 -61 -46 -104 -52 -156 -20 -42 26 -78 26
-92 -1 -16 -28 8 -63 62 -90 33 -17 55 -20 107 -17 59 3 73 8 125 46 109 77
186 48 258 -98 83 -170 242 -299 423 -345 77 -20 253 -20 330 0 117 30 203 80
296 175 139 139 199 285 199 486 0 124 -25 230 -77 326 -21 38 -154 233 -296
433 -237 335 -261 365 -287 365 -26 0 -50 -30 -282 -357z m527 -110 c131 -185
251 -362 266 -392 41 -82 59 -163 59 -264 0 -168 -56 -303 -175 -423 -114
-115 -231 -164 -395 -164 -107 0 -171 15 -265 63 -68 34 -187 148 -223 214
l-23 43 26 0 c27 0 77 24 134 65 45 33 97 33 142 0 70 -50 107 -65 164 -65 94
0 181 61 156 108 -15 27 -34 33 -62 17 -80 -46 -122 -47 -175 -4 -54 43 -95
59 -154 59 -59 0 -100 -16 -154 -59 -28 -22 -49 -31 -76 -31 -36 0 -38 2 -49
44 -16 66 -16 66 44 66 57 0 94 15 164 65 45 33 97 33 142 0 70 -50 107 -65
164 -65 94 0 181 61 156 108 -15 27 -34 33 -62 17 -80 -46 -122 -47 -175 -4
-54 43 -95 59 -154 59 -60 0 -100 -16 -154 -59 -34 -27 -47 -31 -85 -29 -51 3
-58 14 -46 74 6 33 7 34 56 34 51 0 90 16 158 65 45 33 97 33 142 0 70 -50
107 -65 164 -65 115 0 209 90 135 130 -12 6 -30 2 -63 -15 -63 -34 -105 -32
-153 6 -54 43 -95 59 -154 59 -59 0 -100 -16 -154 -59 -23 -18 -50 -31 -67
-31 -35 0 -35 3 -4 59 36 62 496 711 505 711 4 0 114 -152 245 -337z"/>
</g>
</svg>
