<?xml version="1.0" standalone="no"?>
<!DOCTYPE svg PUBLIC "-//W3C//DTD SVG 20010904//EN"
 "http://www.w3.org/TR/2001/REC-SVG-20010904/DTD/svg10.dtd">
<svg version="1.0" xmlns="http://www.w3.org/2000/svg"
 viewBox="0 0 512.000000 512.000000"
 preserveAspectRatio="xMidYMid meet">
<g transform="translate(0.000000,512.000000) scale(0.100000,-0.100000)"
fill="#fc2344" stroke="none">
<path d="M1292 5092 c-128 -137 -608 -697 -613 -715 -3 -12 -2 -37 3 -54 14
-53 47 -63 197 -63 l131 0 -6 -32 c-43 -241 -132 -439 -270 -599 -133 -155
-191 -231 -237 -313 -126 -222 -210 -518 -242 -859 -7 -67 -7 -67 -38 -67 -69
0 -170 -78 -203 -156 -19 -44 -18 -155 1 -201 43 -102 122 -153 250 -161 l83
-5 -89 -147 c-100 -166 -110 -206 -65 -249 30 -29 89 -31 118 -5 11 11 72 106
135 211 l116 193 103 0 c57 0 104 -3 104 -6 0 -3 -40 -73 -90 -156 -49 -83
-90 -159 -90 -169 0 -82 104 -126 158 -65 10 11 69 105 131 209 l112 187 106
0 105 0 -28 -47 c-15 -26 -56 -94 -91 -152 -68 -115 -77 -151 -43 -193 24 -31
65 -40 105 -23 25 10 54 51 150 213 l120 201 107 1 107 0 -89 -149 c-101 -167
-112 -207 -66 -250 30 -29 89 -31 118 -5 11 11 72 106 135 211 l116 193 103 0
c57 0 104 -3 104 -6 0 -3 -40 -73 -90 -156 -50 -83 -90 -159 -90 -169 0 -82
104 -126 158 -65 10 11 69 105 131 209 l112 187 106 0 105 0 -28 -47 c-15 -26
-56 -94 -91 -152 -68 -115 -77 -151 -43 -193 24 -31 65 -40 105 -23 25 10 54
51 150 213 l120 201 107 1 107 0 -89 -149 c-101 -167 -112 -207 -66 -250 30
-29 89 -31 118 -5 11 11 72 106 135 211 l116 193 103 0 c57 0 104 -3 104 -6 0
-3 -40 -73 -90 -156 -49 -83 -90 -159 -90 -169 0 -82 104 -126 158 -65 10 11
69 105 131 209 l112 187 106 0 105 0 -28 -47 c-15 -26 -56 -94 -91 -152 -68
-115 -77 -151 -43 -193 24 -31 65 -40 105 -23 25 10 54 51 150 213 l120 201
107 1 107 0 -89 -149 c-101 -167 -112 -207 -66 -250 30 -29 89 -31 118 -5 11
11 72 106 135 211 l116 193 103 0 c57 0 104 -3 104 -6 0 -3 -40 -73 -90 -156
-49 -83 -90 -159 -90 -169 0 -82 104 -126 158 -65 10 11 69 105 130 207 l112
186 58 7 c81 9 157 56 197 120 24 40 30 62 33 122 2 40 -1 88 -7 107 -16 49
-83 121 -134 146 -42 20 -58 21 -500 21 -359 0 -457 3 -457 13 0 33 33 222 51
297 43 175 104 292 219 420 275 307 430 656 485 1093 l6 47 135 0 c179 0 204
12 204 98 0 34 -25 65 -311 392 -171 195 -316 358 -322 362 -7 4 -29 8 -50 8
-49 0 -47 2 -396 -398 -263 -301 -291 -337 -291 -368 0 -26 8 -44 29 -65 l29
-29 136 0 c156 0 145 9 121 -105 -47 -221 -139 -397 -310 -591 -102 -115 -145
-177 -208 -294 -109 -205 -196 -525 -214 -787 l-6 -93 -422 0 -421 0 8 73 c21
189 81 394 148 507 21 36 73 103 114 150 270 304 445 691 481 1068 l8 72 144
0 145 0 29 29 c31 31 37 67 18 104 -13 24 -554 646 -605 695 -39 37 -98 44
-132 15 -58 -50 -622 -710 -627 -734 -8 -36 18 -87 51 -99 14 -6 83 -10 153
-10 l128 0 -4 -27 c-39 -253 -142 -466 -324 -668 -135 -151 -220 -292 -292
-486 -65 -173 -114 -401 -133 -612 l-6 -77 -421 0 -420 0 7 72 c23 253 107
480 228 619 110 126 138 162 210 269 162 242 279 564 304 838 l7 72 144 0 145
0 29 29 c21 21 29 39 29 64 0 32 -29 69 -291 369 -159 183 -306 348 -324 366
-47 44 -105 45 -143 4z m273 -427 l192 -220 -36 -3 c-72 -5 -101 -13 -131 -39
-45 -37 -58 -70 -70 -174 -46 -383 -190 -702 -456 -1004 -150 -172 -226 -344
-274 -628 -11 -66 -20 -132 -20 -147 0 -61 3 -60 -176 -60 l-164 0 6 58 c41
414 157 735 344 949 171 196 245 308 310 467 45 110 86 265 95 364 7 61 5 77
-14 116 -28 57 -78 89 -149 96 l-53 5 193 222 c106 122 197 221 202 219 5 -1
95 -101 201 -221z m1538 0 l197 -225 -50 0 c-64 0 -109 -18 -142 -58 -32 -39
-44 -77 -53 -167 -31 -346 -194 -702 -449 -985 -124 -138 -193 -274 -246 -485
-15 -60 -33 -150 -39 -200 -7 -49 -14 -105 -17 -122 l-5 -33 -165 0 -166 0 7
68 c40 420 165 748 371 973 198 215 324 466 369 733 20 119 14 165 -27 212
-41 46 -63 57 -127 64 l-55 5 195 222 c107 122 197 223 200 223 3 0 94 -101
202 -225z m1536 2 l193 -222 -58 -5 c-115 -10 -167 -67 -179 -199 -34 -371
-193 -724 -459 -1019 -74 -81 -102 -122 -151 -221 -63 -127 -123 -355 -141
-538 l-7 -73 -163 0 -164 0 0 41 c0 69 29 247 61 377 67 272 155 448 316 628
98 110 146 176 205 279 124 217 202 541 153 635 -26 49 -79 82 -144 89 l-58 6
195 223 c107 122 197 222 201 221 3 0 93 -100 200 -222z m275 -2476 c35 -33
35 -79 0 -112 l-26 -24 -2311 -3 c-1272 -1 -2322 0 -2335 3 -61 15 -83 92 -39
133 l23 22 1815 3 c998 1 2047 2 2331 2 l516 0 26 -24z"/>
<path d="M444 1342 c-54 -40 -179 -176 -246 -269 -67 -92 -138 -231 -168 -328
-32 -98 -39 -288 -15 -371 27 -93 63 -154 134 -225 105 -105 212 -149 360
-149 105 1 157 12 240 53 136 67 245 215 272 371 44 259 -100 589 -374 854
-111 106 -134 114 -203 64z m128 -249 c224 -236 328 -539 246 -715 -32 -69
-96 -136 -163 -169 -43 -20 -64 -24 -145 -24 -83 0 -101 4 -145 27 -60 32
-124 97 -156 158 -21 39 -24 59 -24 155 0 81 5 124 19 165 27 81 81 184 136
264 53 76 157 196 169 196 5 0 33 -26 63 -57z"/>
<path d="M1720 1253 c-200 -205 -311 -401 -349 -617 -50 -278 86 -523 338
-612 51 -18 87 -24 162 -24 158 0 263 42 370 149 71 71 107 132 134 226 24 82
16 271 -15 370 -62 198 -242 459 -403 587 -37 28 -58 38 -85 38 -34 0 -47 -10
-152 -117z m234 -178 c212 -243 302 -502 235 -679 -25 -69 -96 -149 -163 -184
-45 -23 -63 -27 -146 -27 -79 0 -103 4 -141 23 -108 53 -182 156 -195 273 -14
122 56 327 162 476 50 70 161 193 174 193 5 0 38 -34 74 -75z"/>
<path d="M3163 1332 c-161 -128 -329 -371 -399 -577 -38 -115 -46 -293 -16
-392 67 -219 262 -363 491 -363 155 0 269 46 371 150 180 182 198 452 49 753
-60 122 -135 222 -259 350 -105 107 -118 117 -152 117 -27 0 -48 -10 -85 -38z
m145 -246 c176 -188 287 -439 268 -605 -13 -117 -87 -220 -195 -273 -38 -19
-62 -23 -141 -23 -83 0 -101 4 -145 27 -232 121 -246 418 -33 731 46 67 166
207 178 207 4 0 35 -29 68 -64z"/>
<path d="M4473 1278 c-274 -265 -418 -595 -374 -854 34 -198 193 -370 381
-413 68 -16 209 -13 271 5 128 38 256 140 312 249 80 160 78 371 -7 573 -71
169 -255 412 -380 504 -69 50 -92 42 -203 -64z m201 -190 c108 -121 198 -268
242 -398 14 -41 19 -84 19 -165 0 -96 -3 -116 -24 -155 -32 -61 -96 -126 -156
-158 -44 -23 -62 -27 -145 -27 -81 0 -102 4 -145 24 -67 33 -131 100 -163 169
-82 176 22 479 246 715 30 31 58 57 63 57 4 0 33 -28 63 -62z"/>
</g>
</svg>
