<?xml version="1.0" standalone="no"?>
<!DOCTYPE svg PUBLIC "-//W3C//DTD SVG 20010904//EN"
 "http://www.w3.org/TR/2001/REC-SVG-20010904/DTD/svg10.dtd">
<svg version="1.0" xmlns="http://www.w3.org/2000/svg"
 width="376.000000pt" height="376.000000pt" viewBox="0 0 376.000000 376.000000"
 preserveAspectRatio="xMidYMid meet">
<g transform="translate(0.000000,376.000000) scale(0.100000,-0.100000)"
fill="#fc2344" stroke="none">
<path d="M1463 3565 c-185 -40 -325 -192 -353 -380 -6 -43 -10 -425 -10 -988
l0 -917 -44 -55 c-90 -110 -136 -245 -136 -396 0 -152 39 -272 126 -390 187
-255 547 -329 834 -172 94 52 206 169 252 263 20 41 44 103 52 136 20 79 21
241 1 319 -21 83 -76 192 -125 247 l-40 46 0 924 c0 588 -4 947 -11 988 -30
192 -185 349 -374 380 -75 12 -95 12 -172 -5z m213 -175 c60 -26 120 -84 149
-145 20 -40 28 -74 32 -144 l6 -91 -112 0 -111 0 0 70 c0 62 -3 74 -25 95 -15
16 -36 25 -55 25 -19 0 -40 -9 -55 -25 l-25 -24 0 -1034 0 -1034 -40 -18 c-60
-27 -116 -93 -136 -161 -50 -175 75 -344 256 -344 146 0 270 122 270 265 0 95
-69 205 -151 242 l-39 17 0 133 0 133 110 0 110 0 0 -68 c0 -65 1 -69 43 -117
97 -111 137 -208 137 -333 0 -192 -103 -357 -272 -437 -140 -66 -276 -66 -413
-1 -88 42 -147 93 -197 170 -121 188 -101 417 51 591 l50 57 3 982 c3 1095 -1
1027 74 1114 87 103 221 135 340 82z m184 -645 l0 -105 -110 0 -110 0 0 105 0
105 110 0 110 0 0 -105z m0 -375 l0 -110 -110 0 -110 0 0 110 0 110 110 0 110
0 0 -110z m0 -380 l0 -110 -110 0 -110 0 0 110 0 110 110 0 110 0 0 -110z m0
-375 l0 -105 -110 0 -110 0 0 105 0 105 110 0 110 0 0 -105z m-231 -711 c74
-62 27 -184 -71 -184 -39 0 -85 35 -98 75 -33 100 88 178 169 109z"/>
<path d="M2460 3567 c-140 -39 -224 -151 -224 -297 0 -125 54 -214 166 -270
81 -40 186 -43 264 -6 109 51 165 138 172 266 4 81 2 88 -30 150 -66 128 -215
195 -348 157z m136 -168 c61 -29 88 -76 82 -141 -5 -45 -11 -57 -46 -90 -36
-33 -47 -38 -89 -38 -65 0 -109 28 -134 85 -27 61 -18 106 32 156 34 34 54 43
98 48 8 0 34 -8 57 -20z"/>
</g>
</svg>
